<svg id="Layer_1" data-name="Layer 1" xmlns="http://www.w3.org/2000/svg" viewBox="0 0 512 512"><defs><style>.cls-1{fill:#0c0c0c;}.cls-2{fill:#ffe147;}</style></defs><rect class="cls-1" width="512" height="512"/><path class="cls-2" d="M292.38,220.449l160.294,34.495a1.08,1.08,0,0,1,0,2.112l-160.294,34.5a1.083,1.083,0,0,0-.829.829l-34.5,160.294a1.08,1.08,0,0,1-2.112,0L220.449,292.38a1.083,1.083,0,0,0-.829-.829l-160.294-34.5a1.08,1.08,0,0,1,0-2.112L219.62,220.449a1.083,1.083,0,0,0,.829-.829L254.944,59.326a1.08,1.08,0,0,1,2.112,0l34.5,160.294A1.083,1.083,0,0,0,292.38,220.449Z"/></svg>